<svg width="40" height="40" viewBox="0 0 40 40" fill="none" xmlns="http://www.w3.org/2000/svg">
<rect width="40" height="40" rx="20" fill="#5061FF"/>
<path d="M16.3718 26.224C15.2731 26.224 14.3451 25.9787 13.5878 25.488C12.8305 24.9973 12.2918 24.32 11.9718 23.456L13.8598 22.352C14.2971 23.4933 15.1558 24.064 16.4358 24.064C17.0331 24.064 17.4811 23.9573 17.7798 23.744C18.0785 23.5307 18.2278 23.2427 18.2278 22.88C18.2278 22.4853 18.0518 22.1813 17.6998 21.968C17.3478 21.744 16.7185 21.504 15.8118 21.248C14.8305 20.9493 14.0571 20.6027 13.4918 20.208C12.7878 19.6853 12.4358 18.9173 12.4358 17.904C12.4358 16.88 12.7931 16.0747 13.5078 15.488C14.2225 14.88 15.0918 14.576 16.1158 14.576C17.0118 14.576 17.8065 14.7947 18.4998 15.232C19.1931 15.6693 19.7318 16.288 20.1158 17.088L18.2598 18.16C17.8118 17.2 17.0971 16.72 16.1158 16.72C15.6678 16.72 15.3105 16.8267 15.0438 17.04C14.7771 17.2427 14.6438 17.5093 14.6438 17.84C14.6438 18.192 14.7878 18.48 15.0758 18.704C15.3958 18.928 15.9611 19.1627 16.7718 19.408L17.5398 19.664C17.6785 19.7067 17.9185 19.7973 18.2598 19.936C18.5798 20.0533 18.8145 20.1653 18.9638 20.272C19.4865 20.592 19.8385 20.9227 20.0198 21.264C20.2971 21.712 20.4358 22.24 20.4358 22.848C20.4358 23.8827 20.0571 24.704 19.2998 25.312C18.5425 25.92 17.5665 26.224 16.3718 26.224ZM24.0058 14.8V23.888H28.2778V26H21.7978V14.8H24.0058Z" fill="white"/>
</svg>
