<svg width="40" height="40" fill="none" xmlns="http://www.w3.org/2000/svg"><rect width="40" height="40" rx="20" fill="#FF8D23"/><path d="M16.372 26.224c-1.099 0-2.027-.245-2.784-.736a4.018 4.018 0 01-1.616-2.032l1.888-1.104c.437 1.141 1.296 1.712 2.576 1.712.597 0 1.045-.107 1.344-.32.298-.213.448-.501.448-.864 0-.395-.176-.699-.528-.912-.352-.224-.982-.464-1.888-.72-.981-.299-1.755-.645-2.32-1.04-.704-.523-1.056-1.29-1.056-2.304 0-1.024.357-1.83 1.072-2.416.715-.608 1.584-.912 2.608-.912.896 0 1.69.219 2.384.656.693.437 1.232 1.056 1.616 1.856L18.26 18.16c-.448-.96-1.163-1.44-2.144-1.44-.448 0-.806.107-1.072.32a.957.957 0 00-.4.8c0 .352.144.64.432.864.32.224.885.459 1.696.704l.768.256c.139.043.379.133.72.272.32.117.554.23.704.336.523.32.875.65 1.056.992.277.448.416.976.416 1.584 0 1.035-.379 1.856-1.136 2.464-.758.608-1.733.912-2.928.912zM24.006 14.8v9.088h4.272V26h-6.48V14.8h2.208z" fill="#fff"/></svg>