<svg width="318" height="275" viewBox="0 0 318 275" fill="none" xmlns="http://www.w3.org/2000/svg">
<g filter="url(#filter0_d_11_115)">
<path d="M307.885 0.925201C307.568 0.160011 306.69 -0.202951 305.925 0.114502L293.456 5.28769C292.691 5.60515 292.328 6.4828 292.645 7.24799C292.962 8.01318 293.84 8.37614 294.605 8.05869L305.689 3.4603L310.288 14.5443C310.605 15.3095 311.483 15.6724 312.248 15.355C313.013 15.0375 313.376 14.1599 313.059 13.3947L307.885 0.925201ZM-0.103113 266.055C1.95452 266.196 3.99954 266.316 6.03207 266.414L6.17691 263.418C4.16502 263.321 2.14046 263.202 0.103113 263.062L-0.103113 266.055ZM18.1774 266.747C22.2778 266.771 26.3257 266.705 30.3221 266.55L30.2059 263.552C26.2548 263.705 22.2516 263.771 18.1953 263.747L18.1774 266.747ZM42.487 265.793C46.5827 265.441 50.6224 264.992 54.6074 264.45L54.2031 261.478C50.2675 262.013 46.2768 262.456 42.2297 262.804L42.487 265.793ZM66.6382 262.501C70.6661 261.742 74.6358 260.884 78.5487 259.931L77.8384 257.016C73.9769 257.957 70.0587 258.804 66.0825 259.553L66.6382 262.501ZM90.3046 256.73C94.2183 255.55 98.073 254.271 101.87 252.897L100.849 250.076C97.103 251.432 93.3 252.693 89.4386 253.857L90.3046 256.73ZM113.21 248.439C116.961 246.844 120.654 245.154 124.29 243.371L122.969 240.677C119.381 242.437 115.737 244.105 112.036 245.678L113.21 248.439ZM135.082 237.716C138.631 235.734 142.123 233.662 145.561 231.502L143.965 228.962C140.57 231.095 137.122 233.141 133.62 235.096L135.082 237.716ZM155.709 224.765C159.029 222.44 162.297 220.03 165.513 217.541L163.677 215.168C160.497 217.63 157.268 220.01 153.988 222.308L155.709 224.765ZM174.968 209.868C178.051 207.249 181.085 204.554 184.072 201.786L182.033 199.585C179.077 202.325 176.075 204.991 173.026 207.582L174.968 209.868ZM192.83 193.333C195.678 190.471 198.483 187.542 201.245 184.549L199.04 182.514C196.303 185.481 193.524 188.383 190.703 191.217L192.83 193.333ZM209.327 175.468C211.955 172.41 214.543 169.293 217.093 166.12L214.755 164.241C212.225 167.389 209.657 170.481 207.052 173.513L209.327 175.468ZM224.556 156.532C226.983 153.315 229.375 150.047 231.733 146.73L229.287 144.992C226.946 148.287 224.571 151.532 222.162 154.725L224.556 156.532ZM238.637 136.736C240.885 133.392 243.101 130.003 245.287 126.572L242.756 124.96C240.583 128.371 238.381 131.74 236.147 135.063L238.637 136.736ZM251.696 116.254C253.784 112.807 255.845 109.321 257.879 105.8L255.282 104.299C253.257 107.803 251.207 111.271 249.13 114.7L251.696 116.254ZM263.85 95.2272C265.797 91.703 267.719 88.1463 269.618 84.5595L266.966 83.1559C265.076 86.7276 263.162 90.2687 261.224 93.7768L263.85 95.2272ZM275.203 73.7933C277.03 70.2018 278.835 66.583 280.619 62.939L277.925 61.6196C276.147 65.2505 274.348 68.8558 272.529 72.4334L275.203 73.7933ZM285.878 52.006C287.601 48.3602 289.305 44.6918 290.991 41.0029L288.263 39.7558C286.582 43.4335 284.883 47.0903 283.166 50.7241L285.878 52.006ZM295.969 29.9407C297.601 26.2561 299.217 22.5533 300.818 18.8343L298.062 17.6485C296.466 21.358 294.854 25.051 293.226 28.7255L295.969 29.9407ZM305.554 7.67658C306.335 5.81224 307.112 3.94439 307.886 2.07325L305.114 0.926749C304.342 2.7938 303.566 4.65748 302.787 6.51755L305.554 7.67658Z" fill="#444444"/>
</g>
<defs>
<filter id="filter0_d_11_115" x="-4.10312" y="-0.000366211" width="321.277" height="274.752" filterUnits="userSpaceOnUse" color-interpolation-filters="sRGB">
<feFlood flood-opacity="0" result="BackgroundImageFix"/>
<feColorMatrix in="SourceAlpha" type="matrix" values="0 0 0 0 0 0 0 0 0 0 0 0 0 0 0 0 0 0 127 0" result="hardAlpha"/>
<feOffset dy="4"/>
<feGaussianBlur stdDeviation="2"/>
<feComposite in2="hardAlpha" operator="out"/>
<feColorMatrix type="matrix" values="0 0 0 0 0 0 0 0 0 0 0 0 0 0 0 0 0 0 0.25 0"/>
<feBlend mode="normal" in2="BackgroundImageFix" result="effect1_dropShadow_11_115"/>
<feBlend mode="normal" in="SourceGraphic" in2="effect1_dropShadow_11_115" result="shape"/>
</filter>
</defs>
</svg>
