<svg width="209" height="40" viewBox="0 0 209 40" fill="none" xmlns="http://www.w3.org/2000/svg">
<path d="M208.423 34.9747C208.611 35.4939 208.343 36.0673 207.823 36.2554L199.361 39.3197C198.842 39.5077 198.268 39.2392 198.08 38.7199C197.892 38.2006 198.161 37.6272 198.68 37.4392L206.202 34.7154L203.478 27.1933C203.29 26.6741 203.559 26.1006 204.078 25.9126C204.597 25.7246 205.171 25.9931 205.359 26.5124L208.423 34.9747ZM0.0782692 9.59328C1.30656 9.02198 2.57888 8.47923 3.89299 7.96443L4.6225 9.82664C3.34462 10.3272 2.11042 10.8538 0.921731 11.4067L0.0782692 9.59328ZM11.7407 5.35138C14.3104 4.6286 16.9981 3.98808 19.7922 3.42709L20.1859 5.38796C17.4369 5.9399 14.7988 6.56884 12.2822 7.27668L11.7407 5.35138ZM27.9199 2.05699C30.5812 1.68742 33.3197 1.37894 36.1273 1.12977L36.3041 3.12194C33.5271 3.3684 30.8215 3.67325 28.195 4.03798L27.9199 2.05699ZM44.3249 0.57794C47.017 0.451323 49.7615 0.373242 52.5523 0.342364L52.5744 2.34224C49.8063 2.37287 47.0858 2.4503 44.4189 2.57573L44.3249 0.57794ZM60.7888 0.38433C63.4916 0.440117 66.2303 0.536492 68.9999 0.672371L68.9019 2.66997C66.1505 2.53498 63.4307 2.43929 60.7476 2.3839L60.7888 0.38433ZM77.1968 1.1824C79.9025 1.38543 82.6322 1.62373 85.3814 1.89637L85.184 3.88661C82.4503 3.6155 79.7365 3.37859 77.0471 3.17679L77.1968 1.1824ZM93.5483 2.79987C96.2502 3.12923 98.9665 3.49007 101.693 3.88156L101.409 5.86125C98.6961 5.47175 95.9939 5.11278 93.3063 4.78517L93.5483 2.79987ZM109.813 5.13267C112.505 5.57555 115.204 6.04714 117.904 6.54662L117.541 8.51328C114.853 8.01617 112.167 7.54686 109.488 7.10615L109.813 5.13267ZM125.963 8.11832C128.641 8.66772 131.319 9.24376 133.991 9.84568L133.551 11.7968C130.892 11.1977 128.227 10.6243 125.561 10.0775L125.963 8.11832ZM141.984 11.7274C144.647 12.3812 147.3 13.0602 149.941 13.7637L149.426 15.6963C146.798 14.9962 144.157 14.3204 141.507 13.6697L141.984 11.7274ZM157.857 15.956C160.498 16.716 163.122 17.5001 165.726 18.3076L165.134 20.2179C162.543 19.4145 159.932 18.6343 157.304 17.878L157.857 15.956ZM173.545 20.823C176.158 21.695 178.746 22.5905 181.305 23.5087L180.63 25.3912C178.085 24.4782 175.511 23.5876 172.912 22.7202L173.545 20.823ZM189 26.3734C191.583 27.3707 194.13 28.3915 196.636 29.4347L195.867 31.2811C193.377 30.2447 190.847 29.2304 188.28 28.2392L189 26.3734ZM204.186 32.7017C205.439 33.2652 206.679 33.8345 207.907 34.4095L207.059 36.2207C205.84 35.6502 204.609 35.0851 203.366 34.5256L204.186 32.7017Z" fill="black"/>
</svg>
