<svg width="40" height="40" viewBox="0 0 40 40" fill="none" xmlns="http://www.w3.org/2000/svg">
<circle cx="20" cy="20" r="20" fill="#5061FF" fill-opacity="0.7"/>
<path d="M18.9393 30.0607C19.5251 30.6464 20.4749 30.6464 21.0607 30.0607L30.6066 20.5147C31.1924 19.9289 31.1924 18.9792 30.6066 18.3934C30.0208 17.8076 29.0711 17.8076 28.4853 18.3934L20 26.8787L11.5147 18.3934C10.9289 17.8076 9.97919 17.8076 9.3934 18.3934C8.80761 18.9792 8.80761 19.9289 9.3934 20.5147L18.9393 30.0607ZM18.5 28L18.5 29H21.5L21.5 28H18.5Z" fill="white"/>
<path d="M19.2929 20.7071C19.6834 21.0976 20.3166 21.0976 20.7071 20.7071L27.0711 14.3431C27.4616 13.9526 27.4616 13.3195 27.0711 12.9289C26.6805 12.5384 26.0474 12.5384 25.6569 12.9289L20 18.5858L14.3431 12.9289C13.9526 12.5384 13.3195 12.5384 12.9289 12.9289C12.5384 13.3195 12.5384 13.9526 12.9289 14.3431L19.2929 20.7071ZM19 19L19 20H21L21 19H19Z" fill="white"/>
</svg>
