<svg width="229" height="255" viewBox="0 0 229 255" fill="none" xmlns="http://www.w3.org/2000/svg">
<path d="M99.7604 170.027L76.3276 154.884C85.2289 141.11 98.6668 132.292 116.641 128.429C118.3 128.073 123.446 127.111 132.078 125.546C140.986 123.921 146.932 122.643 149.914 121.713C153.173 120.723 157.305 118.75 162.311 115.794C167.485 112.946 171.375 109.507 173.98 105.475C179.299 97.2446 180.569 89.016 177.789 80.7899C175.008 72.5637 168.915 65.4111 159.508 59.3322C141.03 47.3914 123.923 47.8854 108.186 60.814L95.4456 36.864C106.859 28.0469 119.529 23.733 133.456 23.9224C147.659 24.0524 161.312 28.351 174.415 36.8181C189.197 46.3707 199.249 58.8201 204.572 74.1663C210.003 89.3446 207.834 104.493 198.065 119.611C189.597 132.713 176.377 141.195 158.402 145.058C157.02 145.355 152.788 146.192 145.706 147.569C138.734 148.778 133.894 149.818 131.189 150.689C128.591 151.392 124.809 152.639 119.842 154.429C114.875 156.22 110.856 158.385 107.785 160.926C104.715 163.466 102.04 166.5 99.7604 170.027ZM52.747 216.799C48.2116 213.868 45.3794 209.776 44.2503 204.521C43.1213 199.267 44.0222 194.373 46.9531 189.837C49.884 185.302 53.9765 182.47 59.2306 181.341C64.4846 180.212 69.3794 181.112 73.9148 184.043C78.6181 187.083 81.4504 191.175 82.4114 196.321C83.5405 201.575 82.6396 206.47 79.7087 211.005C76.7778 215.54 72.6853 218.373 67.4312 219.502C62.3451 220.739 57.4504 219.838 52.747 216.799Z" fill="#FF8D23" fill-opacity="0.3"/>
</svg>
