<svg width="106" height="218" viewBox="0 0 106 218" fill="none" xmlns="http://www.w3.org/2000/svg">
<path d="M75.6343 141.083L51.2298 148.477L20.5564 69.9995L3.15864 12.5772L40.4831 1.26862L57.8809 58.6909L75.6343 141.083ZM70.7087 168.279C76.6423 166.482 82.3525 167.05 87.8393 169.986C93.3261 172.921 96.9684 177.355 98.7662 183.289C100.564 189.222 99.9953 194.933 97.0602 200.419C94.125 205.906 89.6907 209.548 83.757 211.346C77.8234 213.144 72.1132 212.575 66.6264 209.64C61.1396 206.705 57.4973 202.271 55.6995 196.337C53.9017 190.403 54.3747 184.722 57.1184 179.293C60.0535 173.807 64.5836 170.135 70.7087 168.279Z" fill="#FF8D23" fill-opacity="0.2"/>
</svg>
