<svg width="66" height="66" viewBox="0 0 66 66" fill="none" xmlns="http://www.w3.org/2000/svg">
<path d="M32.9755 0.998321C16.0844 1.02482 1 14.857 1 33.0019C1 50.299 14.9701 65.0019 33 65.0019C50.6169 65.0019 65 50.6825 65 33.0019C65 15.1841 50.2833 0.944521 32.9755 0.998321ZM34 3.09202C36.8134 3.46472 39.4869 5.40112 41.8052 8.74562C41.2164 9.38442 40.8696 10.2238 40.8696 11.1118C40.8696 13.1165 42.6042 14.8654 44.8383 14.5588C45.3795 15.9186 45.8721 17.3433 46.2804 18.8505C42.23 19.8702 38.2264 20.3392 34 20.4123V3.09202ZM42.8696 11.1118C42.8696 10.2966 43.5438 9.61182 44.3696 9.61182C45.1967 9.61182 45.8696 10.2847 45.8696 11.1118C45.8696 11.6933 45.5439 12.2095 45.02 12.459C45.0191 12.4594 45.0185 12.4603 45.0176 12.4608C45.0161 12.4615 45.0146 12.4613 45.0131 12.462C44.0223 12.9445 42.8696 12.2095 42.8696 11.1118ZM32 3.08542V20.4168C30.6735 20.3943 29.3674 20.3278 28.0887 20.2167C27.8671 18.4988 26.4109 17.1621 24.6337 17.1621C23.2092 17.1621 21.9853 18.0207 21.4397 19.245C20.7385 19.0991 20.9268 19.1527 19.7214 18.8491C22.1776 9.82942 26.8881 3.79092 32 3.08542ZM26.1338 20.6621C26.1338 22.6473 23.1338 22.6453 23.1338 20.6621C23.1338 19.835 23.8067 19.1621 24.6338 19.1621C25.4609 19.1621 26.1338 19.8349 26.1338 20.6621ZM25.8333 3.89522C22.4073 6.81722 19.5689 11.8306 17.8032 18.3247C14.5976 17.3631 11.7238 16.0871 9.3886 14.5834C13.4681 9.37882 19.2224 5.53812 25.8333 3.89522ZM18.8315 40.4043C18.8315 41.6774 17.4844 41.9348 17.5844 41.8755C17.5802 41.8762 17.5771 41.8792 17.5729 41.8799C16.6288 42.0345 15.8315 41.3015 15.8315 40.4043C15.8315 39.5772 16.5044 38.9043 17.3315 38.9043C18.1586 38.9043 18.8315 39.5771 18.8315 40.4043ZM8.2039 16.1963C10.7392 17.8458 13.8573 19.2368 17.3269 20.2687C16.4701 23.9787 16.0041 27.914 15.9384 32.0019H3.0253C3.22 26.173 5.1009 20.7442 8.2039 16.1963ZM3.0399 34.0019H15.9309C15.9488 35.0639 15.9943 36.1142 16.0685 37.1493C14.7629 37.658 13.8315 38.921 13.8315 40.4042C13.8315 42.1946 15.1883 43.6586 16.9247 43.8631C17.0888 44.7419 17.2784 45.6168 17.4926 46.4871C14.1127 47.4793 11.0654 48.8053 8.5752 50.3697C5.1314 45.5632 3.2325 39.9455 3.0399 34.0019ZM9.7836 51.9697C12.08 50.5489 14.8888 49.3385 18.0082 48.4193C19.7998 54.576 22.5889 59.3469 25.9068 62.155C19.606 60.6388 13.9684 57.105 9.7836 51.9697ZM32 62.9207C27.0062 62.2507 22.4667 56.6156 19.9288 47.9008C20.0025 47.8826 20.0751 47.8633 20.1491 47.8454C23.9898 46.9105 28.0001 46.4816 32 46.4161V62.9207ZM19.4092 45.9599C19.2113 45.1519 19.0431 44.3365 18.8905 43.5211C20.0359 42.9452 20.8315 41.7712 20.8315 40.4042C20.8315 38.7251 19.6415 37.3203 18.0613 36.9833C17.6511 31.2247 18.1154 25.6857 19.2338 20.7987C19.3464 20.827 20.3682 21.0723 21.1922 21.2405C21.47 22.8945 22.9021 24.162 24.6337 24.162C26.0105 24.162 27.1925 23.3557 27.7637 22.1968C34.5155 22.8018 41.1327 22.2236 46.766 20.7992C47.8541 25.5516 48.316 30.8683 47.9716 36.5081C46.3904 36.8394 45.201 38.2048 45.201 39.8378C45.201 41.1986 46.0317 42.3667 47.2217 42.9132C47.0438 43.9202 46.8397 44.9368 46.5892 45.9599C38.4354 43.9248 27.7244 43.8845 19.4092 45.9599ZM48.7119 38.4287C49.5444 38.4287 50.2222 39.061 50.2222 39.8379C50.2222 40.6152 49.5445 41.2476 48.7119 41.2476C47.8789 41.2476 47.2012 40.6153 47.2012 39.8379C47.2012 39.061 47.8789 38.4287 48.7119 38.4287ZM34 62.9192V46.4161C37.9185 46.4802 42.0112 46.9109 45.85 47.8451C45.9243 47.8631 45.9972 47.8825 46.0711 47.9008C43.5366 56.6033 39.0052 62.2356 34 62.9192ZM40.093 62.1504C43.4138 59.3413 46.2008 54.5722 47.9917 48.4194C51.1111 49.3388 53.92 50.5492 56.2164 51.9701C52.038 57.0976 46.4084 60.6298 40.093 62.1504ZM57.4246 50.37C54.9336 48.805 51.885 47.4785 48.5037 46.4862C48.7749 45.3831 49.0071 44.2861 49.1974 43.1998C50.9019 42.9676 52.2222 41.5562 52.2222 39.8378C52.2222 38.3882 51.2819 37.1555 49.9657 36.6633C50.0207 35.771 50.0553 34.8839 50.0705 34.0019H62.9601C62.7676 39.9443 60.869 45.5612 57.4246 50.37ZM62.9747 32.0019H50.0612C49.9956 27.9128 49.5297 23.9769 48.6728 20.2672C52.1694 19.2209 55.2885 17.8307 57.7985 16.1958C60.899 20.7437 62.78 26.1728 62.9747 32.0019ZM48.2012 18.3213C47.7673 16.7196 47.2575 15.1867 46.6784 13.74C47.4279 13.0892 47.8696 12.1455 47.8696 11.1118C47.8696 9.18212 46.2993 7.61182 44.3696 7.61182C44.0848 7.61182 43.8006 7.64942 43.5234 7.71922C42.4757 6.19032 41.3534 4.90362 40.1657 3.88802C46.7734 5.52502 52.532 9.36922 56.6144 14.5824C54.305 16.0713 51.4316 17.3465 48.2012 18.3213Z" fill="white"/>
<path d="M38.0093 28.5313C38.0093 27.3199 37.5205 26.1363 36.668 25.2837C33.8005 22.4162 28.8496 24.4485 28.8496 28.5313V31.4846C27.7262 32.6377 27.0308 34.2097 27.0308 35.9429C27.0308 39.4698 29.8999 42.3394 33.4268 42.3394C36.9537 42.3394 39.8233 39.4698 39.8233 35.9429C39.8233 34.2124 39.1298 32.6428 38.0093 31.4902V28.5313ZM30.8496 28.5313C30.8496 27.1041 32.0068 25.9429 33.4297 25.9429C34.8634 25.9429 36.0093 27.1021 36.0093 28.5313V30.0962C35.2185 29.7456 34.346 29.5469 33.4268 29.5469C32.5096 29.5469 31.639 29.7445 30.8497 30.0937L30.8496 28.5313ZM33.4268 40.3394C31.003 40.3394 29.0308 38.3672 29.0308 35.9429C29.0308 33.5191 31.003 31.5469 33.4268 31.5469C35.8511 31.5469 37.8233 33.5191 37.8233 35.9429C37.8232 38.3673 35.8511 40.3394 33.4268 40.3394Z" fill="white"/>
<path d="M33.4297 33.5439C32.8775 33.5439 32.4297 33.9917 32.4297 34.5439V36.6806C32.4297 37.2328 32.8775 37.6806 33.4297 37.6806C33.9819 37.6806 34.4297 37.2328 34.4297 36.6806V34.5439C34.4297 33.9917 33.9819 33.5439 33.4297 33.5439Z" fill="white"/>
</svg>
